# xmcd
#
# Track frame offsets:
#	150
#	6510
#	16837
#	30090
#	41002
#	49055
#	63577
#	68447
#	79457
#	85087
#	105425
#	115642
#	130745
#	139370
#	146035
#	155405
#	162065
#
# Disc length: 2229 seconds
#
# Revision: 0
# Processed by: cddbd v1.5PL3 Copyright (c) Steve Scherf et al.
# Submitted via: audiograbber 1.82.02
#
DISCID=d508b311
DTITLE=Tammy Wynette - Greatest Hits Live
DYEAR=2000
DGENRE=Country
TTITLE0=Welcome To My World
TTITLE1=Another Chance
TTITLE2=Stand By Your Man
TTITLE3=Fairy Tales
TTITLE4=When The Grass Grows Over Me
TTITLE5=Till I Can Make It On My Own
TTITLE6=You're A Good Girl Gonna Bad
TTITLE7=D.I.V.O.R.C.E.
TTITLE8=Singing My Song
TTITLE9=Medley
TTITLE10=Womanhood
TTITLE11=Crying In The Rain
TTITLE12=He Says The Same Thing To Me
TTITLE13=I Can't Help It
TTITLE14=No Sign Of Living
TTITLE15=Such A Fool To Love Me
TTITLE16=Till Then Only Then
EXTD=
EXTT0=
EXTT1=
EXTT2=
EXTT3=
EXTT4=
EXTT5=
EXTT6=
EXTT7=
EXTT8=
EXTT9=
EXTT10=
EXTT11=
EXTT12=
EXTT13=
EXTT14=
EXTT15=
EXTT16=
PLAYORDER=
